<svg width="28" height="27" viewBox="0 0 28 27" fill="none" xmlns="http://www.w3.org/2000/svg">
<path d="M3 6C4.65685 6 6 4.65685 6 3C6 1.34315 4.65685 0 3 0C1.34315 0 0 1.34315 0 3C0 4.65685 1.34315 6 3 6Z" fill="#888888"/>
<path d="M9.60491 8.4582V17.7283V26.9985H15.4989V17.8299C15.4989 15.4106 15.9649 13.0677 19.0362 13.0677C22.0653 13.0677 22.1029 15.8337 22.1029 17.9826V27H28V16.8326C28 11.8382 26.8991 8 20.9222 8C18.0526 8 16.1291 9.53802 15.3425 10.9936H15.2628V8.4582H9.60491ZM0 8.4582H5.90338V26.9985H0V8.4582Z" fill="#888888"/>
</svg>
