<svg width="31" height="25" viewBox="0 0 31 25" fill="none" xmlns="http://www.w3.org/2000/svg">
<path d="M26.485 3.855C27.8317 3.02833 28.7233 1.9 29.16 0.465C27.9301 1.13018 26.6103 1.61354 25.2417 1.9C24.07 0.640001 22.5867 0 20.8083 0C19.07 0 17.6017 0.61 16.4033 1.79667C15.8246 2.36017 15.3671 3.03591 15.0587 3.78247C14.7503 4.52903 14.5977 5.33069 14.61 6.13833C14.61 6.65333 14.675 7.11333 14.805 7.50333C9.67833 7.32833 5.435 5.20167 2.09167 1.10833C1.525 2.11 1.24167 3.13 1.24167 4.185C1.24167 6.35333 2.15667 8.07167 3.98333 9.33333C2.94167 9.245 2.02333 8.98167 1.24167 8.55C1.24167 10.0983 1.69667 11.3917 2.60833 12.53C3.49393 13.6392 4.74196 14.401 6.13333 14.6817C5.61333 14.815 5.065 14.8783 4.50167 14.8783C3.98167 14.8783 3.61333 14.835 3.395 14.74C3.77833 16.0017 4.50167 17.025 5.54667 17.8083C6.57973 18.5927 7.83637 19.0266 9.13333 19.0467C6.91333 20.7883 4.375 21.65 1.50333 21.65C0.8 21.65 0.301667 21.64 0 21.5867C2.82833 23.4233 5.97667 24.335 9.46 24.335C13.025 24.335 16.175 23.4317 18.9167 21.625C21.6583 19.8283 23.6817 17.6117 24.9817 15.0017C26.2673 12.4762 26.9366 9.6822 26.935 6.84833V6.06833C28.1333 5.18487 29.1706 4.10186 30.0017 2.86667C28.8793 3.3531 27.6964 3.68556 26.485 3.855Z" fill="#888888"/>
</svg>
