<svg width="28" height="28" viewBox="0 0 28 28" fill="none" xmlns="http://www.w3.org/2000/svg">
<path d="M27.9098 8.26433C27.8941 7.08867 27.6737 5.9247 27.2583 4.82448C26.8981 3.89646 26.348 3.05364 25.6431 2.34989C24.9382 1.64613 24.0939 1.09692 23.1644 0.737333C22.0765 0.329637 20.9272 0.109189 19.7654 0.0853754C18.2697 0.0186274 17.7954 0 13.9984 0C10.2015 0 9.71479 1.04088e-07 8.2299 0.0853754C7.06866 0.109364 5.91991 0.32981 4.83252 0.737333C3.9028 1.09667 3.05845 1.64579 2.35349 2.34958C1.64854 3.05336 1.09849 3.89631 0.73856 4.82448C0.329369 5.90973 0.109032 7.05683 0.0870724 8.21621C0.0202132 9.71106 0 10.1845 0 13.9752C0 17.7658 -1.15846e-08 18.2501 0.0870724 19.7341C0.110395 20.8952 0.329631 22.0408 0.73856 23.129C1.0991 24.0568 1.64955 24.8994 2.35474 25.6029C3.05994 26.3064 3.90436 26.8553 4.83407 27.2146C5.91849 27.6386 7.06744 27.8749 8.23145 27.9131C9.72879 27.9798 10.203 28 14 28C17.797 28 18.2837 28 19.7685 27.9131C20.9303 27.8902 22.0796 27.6703 23.1675 27.2627C24.0968 26.9027 24.9408 26.3533 25.6457 25.6496C26.3506 24.9459 26.9008 24.1033 27.2614 23.1755C27.6704 22.0889 27.8896 20.9433 27.9129 19.7807C27.9798 18.2874 28 17.8139 28 14.0217C27.9969 10.2311 27.9969 9.74986 27.9098 8.26433ZM13.9891 21.1436C10.018 21.1436 6.80098 17.9319 6.80098 13.9674C6.80098 10.0029 10.018 6.79122 13.9891 6.79122C15.8955 6.79122 17.7239 7.54728 19.0719 8.89308C20.4199 10.2389 21.1773 12.0642 21.1773 13.9674C21.1773 15.8706 20.4199 17.6959 19.0719 19.0417C17.7239 20.3875 15.8955 21.1436 13.9891 21.1436ZM21.4634 8.19913C20.5351 8.19913 19.7872 7.45094 19.7872 6.52578C19.7872 6.30613 19.8305 6.08864 19.9147 5.88571C19.9989 5.68278 20.1223 5.4984 20.2779 5.34309C20.4335 5.18777 20.6182 5.06457 20.8214 4.98052C21.0247 4.89646 21.2426 4.8532 21.4626 4.8532C21.6826 4.8532 21.9004 4.89646 22.1037 4.98052C22.307 5.06457 22.4917 5.18777 22.6472 5.34309C22.8028 5.4984 22.9262 5.68278 23.0104 5.88571C23.0946 6.08864 23.1379 6.30613 23.1379 6.52578C23.1379 7.45094 22.3885 8.19913 21.4634 8.19913Z" fill="#888888"/>
<path d="M13.9904 18.97C16.7545 18.97 18.9954 16.7291 18.9954 13.965C18.9954 11.2008 16.7545 8.95996 13.9904 8.95996C11.2262 8.95996 8.98535 11.2008 8.98535 13.965C8.98535 16.7291 11.2262 18.97 13.9904 18.97Z" fill="#888888"/>
</svg>
