<svg width="40" height="40" viewBox="0 0 40 40" fill="none" xmlns="http://www.w3.org/2000/svg">
<path fill-rule="evenodd" clip-rule="evenodd" d="M20 0C8.95431 0 0 8.95431 0 20C0 31.0457 8.95431 40 20 40C26.2026 40 31.7456 37.1765 35.4141 32.7447H25.4834H20.1509H4.58644C3.43348 31.3518 2.4657 29.8001 1.72081 28.1272L12.4187 7.25532L20.1509 22.3408V7.25532H30.393L30.3938 7.2629C30.5162 7.25786 30.6392 7.25532 30.7628 7.25532C33.5194 7.25532 35.9816 8.52123 37.6051 10.5019C34.2241 4.24818 27.6081 0 20 0ZM32.2407 24.9831L32.2294 24.8749C36.4203 24.173 39.6148 20.515 39.6148 16.1258L39.6146 16.073C39.8674 17.3428 40 18.6559 40 20C40 23.8294 38.9238 27.4075 37.0572 30.4482L32.2407 24.9831Z" fill="#00FF57"/>
</svg>
