<svg width="138" height="20" viewBox="0 0 138 20" fill="none" xmlns="http://www.w3.org/2000/svg">
<path d="M14.2386 0.163487V14.7139H10.9864V12.861C10.4398 13.515 9.75655 14.0236 8.93667 14.3869C8.13501 14.7321 7.26048 14.9046 6.31306 14.9046C4.36357 14.9046 2.82402 14.3688 1.69441 13.297C0.564805 12.2071 0 10.5995 0 8.47411V0.163487H3.41616V8.0109C3.41616 9.3188 3.70767 10.2997 4.2907 10.9537C4.89194 11.5895 5.74826 11.9074 6.85965 11.9074C8.06213 11.9074 9.01866 11.535 9.72922 10.7902C10.458 10.0272 10.8224 8.93733 10.8224 7.52044V0.163487H14.2386Z" fill="#114455"/>
<path d="M17.2121 0.163487H20.6283V6.07629H27.9798V0.163487H31.396V14.7139H27.9798V8.96458H20.6283V14.7139H17.2121V0.163487Z" fill="#114455"/>
<path d="M44.911 7.13896C46.7147 7.68392 47.6166 8.8465 47.6166 10.6267C47.6166 11.9346 47.1246 12.9428 46.1408 13.6512C45.1569 14.3597 43.6994 14.7139 41.7681 14.7139H34.3345V0.163487H41.4675C43.253 0.163487 44.6468 0.490462 45.6488 1.14441C46.6509 1.79836 47.152 2.7248 47.152 3.92371C47.152 4.66848 46.9515 5.31335 46.5507 5.85831C46.1681 6.40327 45.6215 6.83015 44.911 7.13896ZM37.5867 6.23978H41.1668C42.9341 6.23978 43.8178 5.63124 43.8178 4.41417C43.8178 3.23342 42.9341 2.64305 41.1668 2.64305H37.5867V6.23978ZM41.4948 12.2343C43.3714 12.2343 44.3097 11.6258 44.3097 10.4087C44.3097 9.77293 44.0911 9.30063 43.6538 8.99182C43.2165 8.66485 42.5333 8.50136 41.6041 8.50136H37.5867V12.2343H41.4948Z" fill="#114455"/>
<path d="M56.1198 14.9046C54.644 14.9046 53.314 14.5867 52.1297 13.951C50.9455 13.3152 50.0163 12.4341 49.3421 11.3079C48.6862 10.1635 48.3583 8.87375 48.3583 7.43869C48.3583 6.00363 48.6862 4.72298 49.3421 3.59673C50.0163 2.47048 50.9455 1.58946 52.1297 0.953679C53.314 0.317893 54.644 0 56.1198 0C57.6138 0 58.9529 0.317893 60.1372 0.953679C61.3215 1.58946 62.2416 2.47048 62.8975 3.59673C63.5716 4.72298 63.9086 6.00363 63.9086 7.43869C63.9086 8.87375 63.5716 10.1635 62.8975 11.3079C62.2416 12.4341 61.3215 13.3152 60.1372 13.951C58.9529 14.5867 57.6138 14.9046 56.1198 14.9046ZM56.1198 11.9891C57.3769 11.9891 58.4155 11.5713 59.2353 10.7357C60.0552 9.90009 60.4652 8.80109 60.4652 7.43869C60.4652 6.07629 60.0552 4.97729 59.2353 4.14169C58.4155 3.30609 57.3769 2.88828 56.1198 2.88828C54.8627 2.88828 53.8241 3.30609 53.0043 4.14169C52.2026 4.97729 51.8018 6.07629 51.8018 7.43869C51.8018 8.80109 52.2026 9.90009 53.0043 10.7357C53.8241 11.5713 54.8627 11.9891 56.1198 11.9891Z" fill="#114455"/>
<path d="M72.8586 0C74.3708 0 75.6917 0.30881 76.8213 0.92643C77.9691 1.54405 78.8528 2.41599 79.4722 3.54223C80.1099 4.66848 80.4288 5.97638 80.4288 7.46594C80.4288 8.93733 80.1281 10.2361 79.5269 11.3624C78.9256 12.4886 78.0784 13.3606 76.9853 13.9782C75.9103 14.5958 74.6623 14.9046 73.2412 14.9046C71.2188 14.9046 69.6337 14.2598 68.4859 12.97V20H65.0424V7.49319C65.0424 6.0218 65.3703 4.72298 66.0262 3.59673C66.6821 2.45232 67.5931 1.5713 68.7592 0.953679C69.9434 0.317893 71.3099 0 72.8586 0ZM72.7219 12.0163C73.9973 12.0163 75.0358 11.5985 75.8374 10.7629C76.6391 9.90917 77.0399 8.81017 77.0399 7.46594C77.0399 6.12171 76.6391 5.02271 75.8374 4.16894C75.0358 3.31517 73.9973 2.88828 72.7219 2.88828C71.4283 2.88828 70.3898 3.30609 69.6064 4.14169C68.8229 4.97729 68.4312 6.07629 68.4312 7.43869C68.4312 8.80109 68.8229 9.90917 69.6064 10.7629C70.408 11.5985 71.4465 12.0163 72.7219 12.0163Z" fill="#114455"/>
<path d="M96.0342 0.163487V14.7139H92.782V12.861C92.2354 13.515 91.5522 14.0236 90.7323 14.3869C89.9307 14.7321 89.0561 14.9046 88.1087 14.9046C86.1592 14.9046 84.6197 14.3688 83.4901 13.297C82.3605 12.2071 81.7957 10.5995 81.7957 8.47411V0.163487H85.2118V8.0109C85.2118 9.3188 85.5033 10.2997 86.0863 10.9537C86.6876 11.5895 87.5439 11.9074 88.6553 11.9074C89.8578 11.9074 90.8143 11.535 91.5249 10.7902C92.2537 10.0272 92.618 8.93733 92.618 7.52044V0.163487H96.0342Z" fill="#114455"/>
<path d="M105.895 12.0163C107.48 12.0163 108.801 11.4896 109.857 10.436L111.661 12.5341C111.024 13.3152 110.204 13.9055 109.202 14.3052C108.2 14.7048 107.07 14.9046 105.813 14.9046C104.209 14.9046 102.797 14.5867 101.577 13.951C100.356 13.3152 99.4086 12.4341 98.7345 11.3079C98.0786 10.1635 97.7506 8.87375 97.7506 7.43869C97.7506 6.0218 98.0694 4.75023 98.7071 3.62398C99.363 2.47956 100.256 1.58946 101.385 0.953679C102.533 0.317893 103.827 0 105.266 0C106.633 0 107.872 0.299727 108.983 0.899182C110.113 1.48047 111.005 2.32516 111.661 3.43324C112.317 4.52316 112.645 5.80381 112.645 7.2752L101.467 9.45504C101.814 10.2906 102.369 10.9264 103.134 11.3624C103.9 11.7984 104.82 12.0163 105.895 12.0163ZM105.266 2.72479C104.009 2.72479 102.989 3.13351 102.205 3.95095C101.44 4.76839 101.057 5.86739 101.057 7.24796V7.2752L109.311 5.69482C109.074 4.80472 108.591 4.08719 107.862 3.54223C107.152 2.99727 106.286 2.72479 105.266 2.72479Z" fill="#114455"/>
<path d="M128.69 14.7139V5.06812L123.771 13.188H122.295L117.458 5.04087V14.7139H114.342V0.163487H117.922L123.115 9.2643L128.553 0.163487H131.751L131.778 14.7139H128.69Z" fill="#114455"/>
<path d="M135.759 14.9046C135.14 14.9046 134.611 14.6957 134.174 14.2779C133.737 13.842 133.518 13.297 133.518 12.6431C133.518 11.9709 133.728 11.426 134.147 11.0082C134.584 10.5904 135.121 10.3815 135.759 10.3815C136.397 10.3815 136.925 10.5904 137.344 11.0082C137.781 11.426 138 11.9709 138 12.6431C138 13.297 137.781 13.842 137.344 14.2779C136.907 14.6957 136.378 14.9046 135.759 14.9046Z" fill="#114455"/>
</svg>
